# xmcd
# 
# Track frame offsets:
#     150
#     11169
#     23939
#     46756
#     68000
#     85975
#     104747
#     124369
#     145655
#     160917
#     186867
#     203887
#     211765
# 
# Disc length: 3151
# 
# Revision: 0
# Processed by: cddbd v1.5.2PL0 Copyright (c) Steve Scherf et al.
# Submitted via: BonkEnc v1.0rc1
# 
DISCID=b60c4d0d
DTITLE=Queen - The Miracle
DYEAR=1989
DGENRE=Rock
TTITLE0=Party
TTITLE1=Khashoggi's Ship
TTITLE2=The Miracle
TTITLE3=I Want It All
TTITLE4=The Invisible Man
TTITLE5=Breakthru
TTITLE6=Rain Must Fall
TTITLE7=Scandal
TTITLE8=My Baby Does Me
TTITLE9=Was It All Worth It
TTITLE10=Hang On In There
TTITLE11=Chinese Torture
TTITLE12=The Invisible Man (12'' Version)
EXTD=YEAR: 1989 ID3G: 17
EXTT0=
EXTT1=
EXTT2=
EXTT3=
EXTT4=
EXTT5=
EXTT6=
EXTT7=
EXTT8=
EXTT9=
EXTT10=
EXTT11=
EXTT12=
PLAYORDER=
